<?xml version="1.0" encoding="UTF-8"?><svg id="_레이어_2" xmlns="http://www.w3.org/2000/svg" viewBox="0 0 339.95 39.82"><defs><style>.cls-1{fill:#003668;}.cls-2{fill:#e6002d;}.cls-3{fill:#fff;}.cls-4{fill:#333777;}.cls-5{fill:#231815;}.cls-6{fill:#06397c;}.cls-7{fill:#94b32a;}.cls-8{fill:#595757;}.cls-9{fill:#394f92;}.cls-10{fill:#4c73b3;}.cls-11{fill:#5e85bb;}</style></defs><g id="UV"><path class="cls-1" d="m19.34,11.71c-2.13-1.45-4.86-.86-6.29,1.32-1.2,1.82-3,2.05-3.7,2.05-2.28,0-3.84-1.6-4.3-3.26h0s0-.03-.01-.05c0-.02-.01-.04-.01-.06-.18-.69-.23-1.02-.23-1.76C4.79,5.98,8.86,1.56,14.73,1.56s9.44,4.57,10.32,7.11c-.02-.04-.03-.09-.05-.14C23.3,3.57,18.59,0,13.04,0,6.06,0,.4,5.66.4,12.64c0,6.24,4.5,11.58,10.75,11.58,4.98,0,8.33-2.79,9.86-6.64.84-2.1.25-4.58-1.67-5.88Z"/><path class="cls-2" d="m25.13,8.92c-.74-2.48-4.2-7.36-10.4-7.36-5.86,0-9.93,4.42-9.93,8.39,0,.74.04,1.07.23,1.76-.08-.3-.12-.61-.12-.9,0-4.13,4.14-7,8.39-7,5.76,0,10.42,4.67,10.42,10.42,0,4.51-2.6,8.42-6.37,10.3h0c4.86-1.76,8.34-6.42,8.34-11.89,0-1.29-.17-2.44-.56-3.72Z"/><path class="cls-8" d="m4.35,34.65H0v-3.68h.99v.95h2.37v-.95h1v3.68Zm-3.79.67h1.01v.81h4.45v-.81h1.01v3.58H.56v-3.58Zm2.79-2.54H.99v1.03h2.37v-1.03Zm2.66,4.16H1.57v1.13h4.45v-1.13Zm-.02-6.09h1.02v3.91h-1.02v-1.58h-1.2v-.89h1.2v-1.44Z"/><path class="cls-8" d="m9.17,36.95v-.9h7.56v.9h-3.27v2.12h-1.02v-2.12h-3.26Zm.61-5.86h6.34v3.67h-6.34v-3.67Zm5.33.89h-4.32v1.88h4.32v-1.88Z"/><path class="cls-8" d="m18.53,36.04h7.56v.9h-3.27v2.12h-1.02v-2.12h-3.26v-.9Zm1.61-4.02h4.32v-1.04h1.01v3.96h-6.34v-3.96h1v1.04Zm4.32.89h-4.32v1.13h4.32v-1.13Z"/><path class="cls-6" d="m48.75,22.35c-.48-.52-3.73-3.93-8.57-3.61-3.51.23-7.49,2.4-8.65,6.12-.58,1.87-.74,5.02,1.09,6.49,2.3,1.86,6.37-.08,8.22-.96,5.87-2.79,8.92-8.13,10.36-11.38.47.34.94.67,1.41,1.01.07-1.36.14-2.71.21-4.07-1.25,2.13-2.51,4.27-3.76,6.4-.65,1.01-5.37,8.1-11.78,7.69-.6-.04-3.54-.23-4.28-1.91-1.02-2.33,2.29-7.29,6.68-7.85,2.88-.37,5.85,1.21,7.75,3.93.44-.63.88-1.25,1.33-1.88Z"/><path class="cls-7" d="m49.34,22.97c-.68,1.05-1.7,2.44-3.14,3.87-.87.86-1.77,1.76-3.17,2.67-2.29,1.48-3.47,1.41-4.35,2.85-.19.31-.71,1.24-.62,2.39.18,2.28,2.68,4.09,4.75,4.54,3.7.79,8.12-2.35,9.38-6.5,1.02-3.36-.12-7.14-2.85-9.81Z"/><path class="cls-7" d="m52.71,15.94c-.58.96-1.15,1.92-1.73,2.88-.53-.38-1.06-.75-1.59-1.13,1.11-.59,2.21-1.17,3.32-1.76Z"/><path class="cls-5" d="m64.17,18.15c0,2.33,1.17,3.37,2.98,3.87v1.74c-1.71-.29-3.22-1.05-4.03-2.06-.78,1.05-2.28,1.89-4.06,2.2v-1.74c1.88-.52,2.97-1.79,2.97-4.02v-2.16h2.13v2.16Zm-3.78,11.04v-4.68h2.13v2.97h8.87v1.71h-11Zm8.62-4v-9.27h2.13v9.27h-2.13Z"/><path class="cls-5" d="m79.78,18.15c0,2.33,1.17,3.37,2.98,3.87v1.74c-1.71-.29-3.22-1.05-4.02-2.06-.78,1.05-2.28,1.89-4.06,2.2v-1.74c1.88-.52,2.97-1.79,2.97-4.02v-2.16h2.13v2.16Zm-3.78,11.04v-4.68h2.13v2.97h8.87v1.71h-11Zm8.62-4v-9.27h2.13v9.27h-2.13Z"/><path class="cls-5" d="m98.17,22.18c0,2.32-.2,4.09-1.07,5.14-.59.72-1.54,1.11-2.66,1.11s-2.05-.39-2.66-1.11c-.87-1.05-1.06-2.82-1.06-5.14s.19-4.08,1.06-5.13c.61-.72,1.55-1.12,2.66-1.12s2.07.4,2.66,1.12c.87,1.05,1.07,2.82,1.07,5.13Zm-5.35,0c0,1.96.11,3.41.58,4.06.23.32.61.49,1.04.49s.82-.17,1.06-.49c.47-.65.56-2.1.56-4.06s-.09-3.4-.56-4.05c-.23-.32-.62-.49-1.06-.49s-.81.17-1.04.49c-.47.65-.58,2.1-.58,4.05Zm9.54,6.95h-2.13v-13.22h2.13v13.22Z"/><path class="cls-5" d="m106.42,16.07h7.1v7.3h-7.1v-7.3Zm.82,13.12v-4.68h2.13v2.97h8.87v1.71h-11Zm1.26-11.43v3.93h2.94v-3.93h-2.94Zm7.37,7.43v-9.27h2.13v9.27h-2.13Z"/><path class="cls-5" d="m123.94,15.52h2.1v1.17h2.13v1.6h-6.48v-1.6h2.25v-1.17Zm-1.99,5.72c0-.75.31-1.41.87-1.86.51-.42,1.24-.66,2.13-.66s1.62.24,2.13.66c.58.45.89,1.11.89,1.86s-.31,1.42-.89,1.87c-.51.42-1.24.66-2.13.66s-1.62-.24-2.13-.66c-.56-.45-.87-1.11-.87-1.87Zm.78,5.61c0-.85.45-1.44,1.2-1.84,1.04-.55,2.67-.73,4.51-.73s3.45.19,4.51.73c.75.4,1.2.99,1.2,1.84s-.45,1.43-1.2,1.83c-1.06.55-2.67.73-4.51.73s-3.47-.19-4.51-.73c-.75-.4-1.2-.99-1.2-1.83Zm1.18-5.61c0,.27.09.5.26.68.19.2.45.33.78.33s.61-.13.78-.33c.17-.17.28-.4.28-.68s-.11-.5-.28-.68c-.17-.2-.44-.32-.78-.32s-.59.12-.78.32c-.17.17-.26.4-.26.68Zm.95,5.61c0,.22.14.37.42.52.58.27,1.73.39,3.15.39s2.58-.11,3.15-.39c.26-.14.42-.3.42-.52s-.16-.39-.42-.53c-.58-.27-1.73-.39-3.15-.39s-2.58.12-3.15.39c-.28.14-.42.32-.42.53Zm6.9-2.88v-3.23h-1.1v2.98h-2v-7.75h2v3.04h1.1v-3.11h2.04v8.06h-2.04Z"/><path class="cls-5" d="m145.12,16.07v1.69h-2.67v.09c0,2.26,1.1,3.2,2.94,3.56v1.74c-1.69-.23-3.15-.92-3.96-1.96-.86,1.04-2.35,1.92-4.04,2.1v-1.73c1.85-.36,2.94-1.43,2.94-3.72v-.09h-2.67v-1.69h7.47Zm-6.81,10.45c0-.95.53-1.63,1.32-2.07,1.12-.63,2.77-.82,4.29-.82s3.19.19,4.29.82c.81.45,1.34,1.12,1.34,2.07s-.53,1.64-1.34,2.09c-1.1.62-2.75.81-4.29.81s-3.17-.19-4.29-.81c-.79-.45-1.32-1.14-1.32-2.09Zm2.13,0c0,.33.19.56.53.75.67.35,1.85.46,2.95.46s2.3-.12,2.97-.46c.33-.19.53-.42.53-.75s-.2-.55-.53-.73c-.67-.36-1.85-.46-2.97-.46s-2.28.1-2.95.46c-.34.19-.53.42-.53.73Zm6.65-3.07v-3.17h-2.72v-1.7h2.72v-2.68h2.13v7.54h-2.13Z"/><path class="cls-5" d="m156.81,25.45c-.73,1.3-2.41,2.35-4.13,2.81v-1.81c1.65-.69,3.06-1.9,3.06-5.62v-4.75h2.13v4.75c0,3.72,1.41,4.92,3.06,5.62v1.81c-1.71-.46-3.37-1.53-4.12-2.81Zm7.66-4.29h2.14v1.7h-2.14v6.28h-2.13v-13.22h2.13v5.24Z"/><path class="cls-5" d="m60.72,37.55c-.86,0-1.35-.52-1.35-1.22v-.12h.44v.12c0,.46.34.8.91.8s.9-.34.9-.8c0-.4-.23-.69-.75-.8l-.51-.12c-.62-.14-.99-.5-.99-1.13s.44-1.16,1.27-1.16,1.27.52,1.27,1.16v.08h-.44v-.08c0-.44-.29-.74-.83-.74s-.83.3-.83.74c0,.4.23.63.69.73l.51.12c.7.16,1.05.55,1.05,1.2,0,.69-.48,1.22-1.34,1.22Z"/><path class="cls-5" d="m64.96,37.47h-.42v-1.79c0-.68-.23-.96-.68-.96s-.82.42-.82,1.18v1.57h-.42v-4.28h.42v1.76c.14-.37.43-.61.92-.61.64,0,.99.45.99,1.23v1.9Z"/><path class="cls-5" d="m65.65,33.79v-.6h.42v.6h-.42Zm0,3.68v-3.05h.42v3.05h-.42Z"/><path class="cls-5" d="m69.1,37.47h-.42v-1.79c0-.68-.23-.96-.68-.96s-.82.42-.82,1.18v1.57h-.42v-3.05h.42v.54c.14-.37.43-.61.92-.61.64,0,.99.45.99,1.23v1.9Z"/><path class="cls-5" d="m71.05,37.55c-.86,0-1.35-.52-1.35-1.22v-.12h.44v.12c0,.46.34.8.91.8s.9-.34.9-.8c0-.4-.23-.69-.75-.8l-.51-.12c-.62-.14-.99-.5-.99-1.13s.44-1.16,1.27-1.16,1.27.52,1.27,1.16v.08h-.44v-.08c0-.44-.29-.74-.83-.74s-.83.3-.83.74c0,.4.23.63.69.73l.51.12c.7.16,1.05.55,1.05,1.2,0,.69-.48,1.22-1.34,1.22Z"/><path class="cls-5" d="m72.98,33.79v-.6h.42v.6h-.42Zm0,3.68v-3.05h.42v3.05h-.42Z"/><path class="cls-5" d="m76.43,37.47h-.42v-1.79c0-.68-.23-.96-.68-.96s-.82.42-.82,1.18v1.57h-.42v-3.05h.42v.54c.14-.37.43-.61.92-.61.64,0,.99.45.99,1.23v1.9Z"/><path class="cls-5" d="m79.07,37.47h-.44v-4.28h.44v4.28Z"/><path class="cls-5" d="m82,37.47h-.42v-2c0-.5-.22-.75-.62-.75-.43,0-.75.4-.75,1.17v1.58h-.42v-3.05h.42v.53c.13-.38.42-.6.84-.6s.75.22.87.65c.15-.4.44-.65.92-.65.61,0,.94.41.94,1.14v1.99h-.42v-2c0-.5-.22-.75-.61-.75-.43,0-.76.41-.76,1.18v1.57Z"/><path class="cls-5" d="m86.66,37.47h-.42v-2c0-.5-.22-.75-.62-.75-.43,0-.75.4-.75,1.17v1.58h-.42v-3.05h.42v.53c.13-.38.42-.6.84-.6s.75.22.87.65c.15-.4.44-.65.92-.65.61,0,.94.41.94,1.14v1.99h-.42v-2c0-.5-.22-.75-.61-.75-.43,0-.76.41-.76,1.18v1.57Z"/><path class="cls-5" d="m89.14,33.79v-.6h.42v.6h-.42Zm0,3.68v-3.05h.42v3.05h-.42Z"/><path class="cls-5" d="m92.18,37c-.12.33-.42.55-.86.55-.75,0-1.16-.54-1.16-1.6s.42-1.6,1.16-1.6c.45,0,.74.22.86.55v-.48h.42v3.2c0,.73-.36,1.27-1.16,1.27-.66,0-1.07-.36-1.13-.92h.43c.05.34.31.54.71.54.48,0,.74-.32.74-.86v-.65Zm-.8-2.27c-.59,0-.81.46-.81,1.22s.22,1.22.81,1.22.8-.46.8-1.22-.22-1.22-.8-1.22Z"/><path class="cls-5" d="m93.69,35.92v1.56h-.42v-3.05h.42v.54c.11-.39.37-.61.82-.61.08,0,.17,0,.21.02v.37c-.05,0-.14-.01-.23-.01-.48,0-.81.39-.81,1.19Z"/><path class="cls-5" d="m96.04,37.55c-.68,0-1.1-.36-1.1-.97s.42-.97,1.1-.97c.44,0,.75.14.87.39v-.52c0-.46-.24-.75-.72-.75-.45,0-.67.23-.7.58h-.43c.05-.58.43-.95,1.13-.95.76,0,1.14.44,1.14,1.13v1.57c0,.15.03.31.07.42h-.43c-.04-.09-.06-.2-.06-.32-.12.25-.42.39-.87.39Zm.1-1.56c-.51,0-.77.23-.77.59s.26.6.77.6.77-.22.77-.6-.26-.59-.77-.59Z"/><path class="cls-5" d="m98.56,36.6c0,.44.17.55.55.55h.28v.37c-.11.01-.24.01-.34.01-.62,0-.9-.2-.9-.85v-1.87h-.42v-.38h.42v-.87h.42v.87h.83v.38h-.83v1.8Z"/><path class="cls-5" d="m99.94,33.79v-.6h.42v.6h-.42Zm0,3.68v-3.05h.42v3.05h-.42Z"/><path class="cls-5" d="m102.18,37.55c-.83,0-1.22-.59-1.22-1.6s.4-1.6,1.22-1.6,1.23.59,1.23,1.6-.4,1.6-1.23,1.6Zm0-2.82c-.59,0-.8.46-.8,1.22s.21,1.22.8,1.22.81-.46.81-1.22-.22-1.22-.81-1.22Z"/><path class="cls-5" d="m106.3,37.47h-.42v-1.79c0-.68-.23-.96-.68-.96s-.82.42-.82,1.18v1.57h-.42v-3.05h.42v.54c.14-.37.43-.61.92-.61.64,0,.99.45.99,1.23v1.9Z"/><path class="cls-5" d="m110.06,33.2l1.39,4.28h-.46l-.32-1.01h-1.74l-.32,1.01h-.46l1.4-4.28h.51Zm-.25.49l-.74,2.35h1.47l-.73-2.35Z"/><path class="cls-5" d="m113.77,33.2h.42v4.28h-.42v-.48c-.12.33-.42.55-.87.55-.74,0-1.16-.53-1.16-1.6s.42-1.6,1.16-1.6c.45,0,.75.22.87.55v-1.7Zm-.81,1.53c-.59,0-.8.46-.8,1.22s.21,1.22.8,1.22.81-.46.81-1.22-.22-1.22-.81-1.22Z"/><path class="cls-5" d="m117.06,37.47h-.42v-2c0-.5-.22-.75-.62-.75-.43,0-.75.4-.75,1.17v1.58h-.42v-3.05h.42v.53c.13-.38.42-.6.84-.6s.75.22.87.65c.15-.4.44-.65.92-.65.61,0,.94.41.94,1.14v1.99h-.42v-2c0-.5-.22-.75-.61-.75-.43,0-.76.41-.76,1.18v1.57Z"/><path class="cls-5" d="m119.55,33.79v-.6h.42v.6h-.42Zm0,3.68v-3.05h.42v3.05h-.42Z"/><path class="cls-5" d="m123,37.47h-.42v-1.79c0-.68-.23-.96-.68-.96s-.82.42-.82,1.18v1.57h-.42v-3.05h.42v.54c.14-.37.43-.61.92-.61.64,0,.99.45.99,1.23v1.9Z"/><path class="cls-5" d="m123.68,33.79v-.6h.42v.6h-.42Zm0,3.68v-3.05h.42v3.05h-.42Z"/><path class="cls-5" d="m125.44,36.6c0,.44.17.55.55.55h.28v.37c-.11.01-.24.01-.34.01-.62,0-.9-.2-.9-.85v-1.87h-.42v-.38h.42v-.87h.42v.87h.83v.38h-.83v1.8Z"/><path class="cls-5" d="m127.21,35.92v1.56h-.42v-3.05h.42v.54c.11-.39.37-.61.82-.61.08,0,.17,0,.21.02v.37c-.05,0-.14-.01-.23-.01-.48,0-.81.39-.81,1.19Z"/><path class="cls-5" d="m129.56,37.55c-.68,0-1.1-.36-1.1-.97s.42-.97,1.1-.97c.44,0,.75.14.87.39v-.52c0-.46-.24-.75-.72-.75-.45,0-.67.23-.7.58h-.43c.05-.58.43-.95,1.13-.95.76,0,1.14.44,1.14,1.13v1.57c0,.15.03.31.07.42h-.43c-.04-.09-.06-.2-.06-.32-.12.25-.42.39-.87.39Zm.1-1.56c-.51,0-.77.23-.77.59s.26.6.77.6.77-.22.77-.6-.26-.59-.77-.59Z"/><path class="cls-5" d="m132.08,36.6c0,.44.17.55.55.55h.28v.37c-.11.01-.24.01-.34.01-.62,0-.9-.2-.9-.85v-1.87h-.42v-.38h.42v-.87h.42v.87h.83v.38h-.83v1.8Z"/><path class="cls-5" d="m133.46,33.79v-.6h.42v.6h-.42Zm0,3.68v-3.05h.42v3.05h-.42Z"/><path class="cls-5" d="m135.7,37.55c-.83,0-1.22-.59-1.22-1.6s.4-1.6,1.22-1.6,1.23.59,1.23,1.6-.4,1.6-1.23,1.6Zm0-2.82c-.59,0-.8.46-.8,1.22s.21,1.22.8,1.22.81-.46.81-1.22-.22-1.22-.81-1.22Z"/><path class="cls-5" d="m139.82,37.47h-.42v-1.79c0-.68-.23-.96-.68-.96s-.82.42-.82,1.18v1.57h-.42v-3.05h.42v.54c.14-.37.43-.61.92-.61.64,0,.99.45.99,1.23v1.9Z"/><path class="cls-5" d="m141.89,35.34c0-1.22.34-2.21,1.51-2.21.9,0,1.42.59,1.47,1.48h-.44c-.05-.65-.4-1.06-1.04-1.06-.84,0-1.07.7-1.07,1.79s.26,1.79,1.07,1.79c.64,0,.99-.4,1.04-1.06h.44c-.05.89-.57,1.47-1.47,1.47-1.18,0-1.51-.98-1.51-2.21Z"/><path class="cls-5" d="m146.59,37.55c-.83,0-1.22-.59-1.22-1.6s.4-1.6,1.22-1.6,1.23.59,1.23,1.6-.4,1.6-1.23,1.6Zm0-2.82c-.59,0-.8.46-.8,1.22s.21,1.22.8,1.22.81-.46.81-1.22-.22-1.22-.81-1.22Z"/><path class="cls-5" d="m150.72,37.47h-.42v-1.79c0-.68-.23-.96-.68-.96s-.82.42-.82,1.18v1.57h-.42v-3.05h.42v.54c.14-.37.43-.61.92-.61.64,0,.99.45.99,1.23v1.9Z"/><path class="cls-5" d="m153.36,35.22v.08h-.42v-.08c0-.27-.22-.49-.61-.49s-.61.22-.61.49.16.39.55.47l.35.08c.59.13.85.38.85.89s-.43.89-1.1.89-1.09-.37-1.09-.89v-.1h.42v.1c0,.32.27.52.67.52s.67-.21.67-.52c0-.29-.16-.43-.53-.51l-.35-.08c-.61-.13-.87-.39-.87-.85,0-.49.37-.87,1.03-.87s1.04.37,1.04.87Z"/><path class="cls-5" d="m154,34.42h.42v1.79c0,.68.23.96.68.96s.82-.43.82-1.18v-1.57h.42v3.05h-.42v-.54c-.14.37-.44.61-.92.61-.64,0-.99-.45-.99-1.23v-1.9Z"/><path class="cls-5" d="m157.03,37.47v-4.28h.42v4.28h-.42Z"/><path class="cls-5" d="m158.79,36.6c0,.44.17.55.55.55h.28v.37c-.11.01-.24.01-.34.01-.62,0-.9-.2-.9-.85v-1.87h-.42v-.38h.42v-.87h.42v.87h.83v.38h-.83v1.8Z"/><path class="cls-5" d="m160.16,33.79v-.6h.42v.6h-.42Zm0,3.68v-3.05h.42v3.05h-.42Z"/><path class="cls-5" d="m163.61,37.47h-.42v-1.79c0-.68-.23-.96-.68-.96s-.82.42-.82,1.18v1.57h-.42v-3.05h.42v.54c.14-.37.43-.61.92-.61.64,0,.99.45.99,1.23v1.9Z"/><path class="cls-5" d="m166.19,37c-.12.33-.42.55-.86.55-.75,0-1.16-.54-1.16-1.6s.42-1.6,1.16-1.6c.45,0,.74.22.86.55v-.48h.42v3.2c0,.73-.36,1.27-1.16,1.27-.66,0-1.07-.36-1.13-.92h.43c.05.34.31.54.71.54.48,0,.74-.32.74-.86v-.65Zm-.8-2.27c-.59,0-.81.46-.81,1.22s.22,1.22.81,1.22.8-.46.8-1.22-.22-1.22-.8-1.22Z"/><path class="cls-5" d="m44.06,2.64v4.82c0,.23-.2.33-.41.33-.22,0-.41-.1-.41-.33v-2.04h-2.42v1.2c0,.56-.19.74-.78.74h-3.07c-.59,0-.78-.18-.78-.74v-3.53c0-.22.2-.32.41-.32s.41.1.41.32v1.36h3v-1.36c0-.22.2-.32.41-.32s.41.1.41.32v1.64h2.42v-2.08c0-.23.19-.33.41-.33.2,0,.41.1.41.33Zm-6.84,4.03h2.57c.16,0,.22-.04.22-.2v-1.34h-3v1.34c0,.16.06.2.22.2Zm1.19,2.01v1.07h4.83v-1.07c0-.22.2-.32.41-.32s.41.1.41.32v2.93c0,.56-.19.74-.78.74h-4.9c-.59,0-.78-.18-.78-.74v-2.93c0-.22.2-.32.41-.32s.41.1.41.32Zm.21,3h4.41c.16,0,.22-.06.22-.21v-1.04h-4.83v1.04c0,.16.06.21.21.21Z"/><path class="cls-5" d="m56.05,8.55c0,.19-.09.34-.29.34h-4.01v3.33c0,.23-.2.33-.42.33-.2,0-.41-.1-.41-.33v-3.33h-4.02c-.2,0-.29-.15-.29-.34,0-.2.09-.35.29-.35h8.85c.2,0,.29.15.29.35Zm-1.36-5.03v2.56c0,.57-.19.74-.78.74h-5.16c-.59,0-.78-.18-.78-.74v-2.56c0-.57.19-.74.78-.74h5.16c.59,0,.78.18.78.74Zm-5.9.16v2.25c0,.15.06.2.22.2h4.64c.16,0,.22-.05.22-.2v-2.25c0-.15-.06-.2-.22-.2h-4.64c-.16,0-.22.05-.22.2Z"/><path class="cls-5" d="m67.07,8.64c0,.19-.09.34-.29.34h-4.01v3.24c0,.23-.2.33-.42.33-.2,0-.41-.1-.41-.33v-3.24h-4.02c-.2,0-.29-.16-.29-.34,0-.2.09-.36.29-.36h8.85c.2,0,.29.16.29.36Zm-7.28-5.69v1.21h5.12v-1.21c0-.22.19-.32.4-.32.22,0,.41.1.41.32v3.27c0,.57-.19.74-.78.74h-5.16c-.59,0-.78-.18-.78-.74v-3.27c0-.22.19-.32.4-.32.22,0,.41.1.41.32Zm.19,3.31h4.73c.14,0,.19-.04.19-.17v-1.25h-5.12v1.25c0,.12.06.17.19.17Z"/><path class="cls-5" d="m76.72,9.27v.79c0,.56-.19.74-.78.74h-4.97c-.13,0-.19.05-.19.18v.65c0,.12.06.18.19.18h5.76c.18,0,.26.15.26.31,0,.18-.08.33-.26.33h-5.97c-.59,0-.78-.18-.78-.74v-.79c0-.56.19-.74.78-.74h4.98c.12,0,.18-.04.18-.18v-.65c0-.12-.06-.17-.18-.17h-5.51c-.18,0-.27-.16-.27-.33,0-.17.09-.32.27-.32h2.72v-1.09h-4.04c-.18,0-.27-.14-.27-.33,0-.18.09-.33.27-.33h8.9c.18,0,.27.15.27.33,0,.19-.09.33-.27.33h-4.04v1.09h2.17c.59,0,.78.18.78.74Zm-2.94-6.93v.78h2.92c.18,0,.27.14.27.33s-.09.34-.27.34h-2.92v.11c0,.5.25.75,1.11,1.04.76.26,1.45.48,2.09.67.22.07.27.27.2.44s-.23.28-.45.21c-.63-.19-1.28-.39-2.04-.64-.92-.3-1.25-.58-1.32-.84h-.01c-.08.28-.41.55-1.32.85-.77.26-1.41.46-2.05.64-.23.06-.39-.03-.45-.21-.07-.18-.01-.39.2-.45.65-.19,1.34-.41,2.09-.67.86-.29,1.11-.54,1.11-1.04v-.11h-2.92c-.18,0-.27-.16-.27-.34s.09-.33.27-.33h2.92v-.78c0-.23.2-.34.42-.34s.42.11.42.34Z"/><path class="cls-5" d="m85.22,5.04c0,1.31-.83,2.33-2.56,2.33s-2.56-1.02-2.56-2.33.83-2.34,2.56-2.34,2.56,1.02,2.56,2.34Zm-4.31,0c0,.89.5,1.64,1.76,1.64s1.75-.75,1.75-1.64-.5-1.65-1.75-1.65-1.76.76-1.76,1.65Zm1.54,3.57v1.12h4.79v-1.12c0-.22.2-.32.41-.32s.41.1.41.32v3c0,.56-.19.74-.78.74h-4.86c-.59,0-.78-.18-.78-.74v-3c0-.22.2-.32.41-.32s.41.1.41.32Zm.22,3.07h4.36c.16,0,.22-.06.22-.21v-1.06h-4.79v1.06c0,.16.06.21.22.21Zm5.39-9.04v4.75c0,.23-.2.33-.41.33-.22,0-.42-.1-.42-.33V2.64c0-.23.2-.33.42-.33.2,0,.41.1.41.33Z"/><path class="cls-5" d="m98.76,9.78v2.42c0,.23-.19.33-.41.33s-.41-.1-.41-.33v-2.28c0-.14-.07-.2-.22-.2h-5.57c-.19,0-.28-.16-.28-.34s.09-.34.28-.34h2.82v-1.88h-4.03c-.19,0-.28-.16-.28-.34s.09-.34.28-.34h6.59c.19-.73.3-1.49.3-2.3v-.53c0-.14-.06-.2-.22-.2h-5.41c-.19,0-.28-.16-.28-.36,0-.19.09-.34.28-.34h5.66c.59,0,.78.18.78.74v.63c0,.84-.12,1.69-.3,2.36h1.48c.19,0,.28.16.28.34s-.09.34-.28.34h-4.03v1.88h2.19c.59,0,.78.18.78.74Z"/><path class="cls-5" d="m107.04,3.7v3.26c0,.57-.19.74-.78.74h-3.15c-.59,0-.78-.18-.78-.74v-3.26c0-.56.19-.74.78-.74h3.15c.59,0,.78.18.78.74Zm-3.89.16v2.93c0,.16.06.21.22.21h2.65c.16,0,.22-.05.22-.21v-2.93c0-.16-.06-.2-.22-.2h-2.65c-.16,0-.22.04-.22.2Zm1.35,5.34v2.17c0,.15.06.2.21.2h5.37c.2,0,.29.17.29.36s-.09.35-.29.35h-5.64c-.59,0-.78-.18-.78-.74v-2.34c0-.23.2-.33.42-.33s.42.1.42.33Zm5.58-6.56v6.76c0,.23-.2.33-.41.33-.22,0-.42-.1-.42-.33V2.64c0-.23.2-.33.42-.33.2,0,.41.1.41.33Z"/><path class="cls-5" d="m119.75,7.01c.01.2-.07.36-.25.38-.89.11-1.91.18-2.97.22v1.54c0,.22-.19.31-.42.31-.22,0-.41-.09-.41-.31v-1.51c-.86.02-1.74.03-2.58.03-.19,0-.28-.15-.28-.34s.09-.34.28-.34c1.97,0,4.18-.03,6.29-.28.18-.02.31.11.33.3Zm-.92-2.7c0,1.04-.86,1.8-2.6,1.8s-2.6-.75-2.6-1.8.85-1.79,2.6-1.79,2.6.75,2.6,1.79Zm-4.42,0c0,.64.55,1.13,1.81,1.13s1.81-.49,1.81-1.13-.57-1.13-1.81-1.13-1.81.49-1.81,1.13Zm.97,5.7v1.38c0,.16.06.21.22.21h5.71c.19,0,.28.15.28.34s-.09.34-.28.34h-5.98c-.59,0-.78-.18-.78-.74v-1.54c0-.23.2-.33.42-.33s.42.1.42.33Zm5.91-7.37v7.09c0,.23-.2.33-.41.33-.22,0-.41-.1-.41-.33v-.76h-2.08c-.18,0-.27-.15-.27-.34,0-.18.09-.33.27-.33h2.08V2.64c0-.23.19-.33.41-.33s.41.1.41.33Z"/><path class="cls-5" d="m128.17,3.48c0,.2-.09.35-.28.35h-2.77c-.16,0-.22.06-.22.21v4.21c0,.16.06.21.22.21,1.07,0,2.38-.08,3.24-.21.17-.02.29.1.33.3.02.2-.06.39-.24.41-.68.11-2.03.2-3.59.2-.59,0-.78-.18-.78-.74V3.88c0-.57.19-.74.78-.74h3.03c.19,0,.28.15.28.34Zm4.27-.85v8.84c0,.22-.19.32-.4.32-.19,0-.39-.1-.39-.32v-4.98h-1.51v4.52c0,.22-.19.32-.4.32-.19,0-.39-.1-.39-.32V2.74c0-.22.19-.32.39-.32.2,0,.4.1.4.32v3.05h1.51v-3.16c0-.22.19-.32.39-.32.2,0,.4.1.4.32Z"/><path class="cls-5" d="m137.7,2.6v.87h1.86c.2,0,.29.16.29.34s-.09.35-.29.35h-4.66c-.19,0-.28-.17-.28-.35s.09-.34.28-.34h1.99v-.87c0-.23.2-.33.41-.33s.41.1.41.33Zm1.67,4.02c0,1.03-.74,1.73-2.08,1.73s-2.07-.7-2.07-1.73.74-1.73,2.07-1.73,2.08.7,2.08,1.73Zm-3.42,0c0,.65.49,1.09,1.34,1.09s1.35-.43,1.35-1.09-.49-1.09-1.35-1.09-1.34.43-1.34,1.09Zm7.48,4.12c0,1.22-1.2,1.82-3.32,1.82s-3.32-.6-3.32-1.82,1.2-1.82,3.32-1.82,3.32.61,3.32,1.82Zm-5.81,0c0,.73.79,1.16,2.49,1.16s2.49-.43,2.49-1.16-.79-1.15-2.49-1.15-2.49.43-2.49,1.15Zm5.82-8.11v5.88c0,.22-.19.31-.4.31-.19,0-.39-.09-.39-.31v-2.77h-1.48v2.3c0,.22-.19.31-.4.31-.19,0-.39-.09-.39-.31V2.68c0-.22.19-.32.39-.32.2,0,.4.1.4.32v2.36h1.48v-2.41c0-.22.19-.32.39-.32.2,0,.4.1.4.32Z"/><path class="cls-5" d="m150.94,3.82v1.25c0,1.85-.58,2.4-4.09,4.52-.17.1-.39.03-.5-.13-.11-.17-.11-.41.07-.52,3.3-1.96,3.7-2.37,3.7-3.9v-1.05c0-.14-.06-.2-.22-.2h-3.23c-.2,0-.29-.17-.29-.35s.09-.36.29-.36h3.48c.59,0,.78.18.78.74Zm3.19-1.18v8.82c0,.23-.2.33-.42.33-.2,0-.41-.1-.41-.33V2.64c0-.23.2-.33.41-.33.22,0,.42.1.42.33Z"/><path class="cls-5" d="m159.67,5.5v1.98c1.05-.03,2.15-.09,3.33-.19.17-.01.29.11.3.31.01.19-.07.35-.25.38-1.99.17-3.94.21-6.02.21-.2,0-.3-.15-.3-.34s.09-.34.3-.34c.6,0,1.21,0,1.82-.01v-1.99c0-.23.19-.33.4-.33.22,0,.42.1.42.33Zm2.78-1.84v.71c0,.68-.07,1.3-.24,1.84-.06.2-.26.29-.5.24-.22-.06-.34-.21-.28-.42.13-.56.2-1.07.2-1.69v-.51c0-.16-.07-.2-.22-.2h-3.68c-.2,0-.29-.17-.29-.35,0-.2.09-.36.29-.36h3.93c.59,0,.78.18.78.74Zm-3.31,5.89v1.85c0,.16.06.21.22.21h5.5c.19,0,.28.15.28.34s-.09.34-.28.34h-5.77c-.59,0-.78-.18-.78-.74v-2c0-.25.2-.34.42-.34s.42.1.42.34Zm5.71-6.91v2.84h1.29c.2,0,.29.17.29.35,0,.2-.09.37-.29.37h-1.29v3.36c0,.23-.19.33-.41.33s-.41-.1-.41-.33V2.64c0-.23.19-.33.41-.33s.41.1.41.33Z"/><path class="cls-5" d="m265.77,22.47v.82h2.17c.09,0,.13.07.13.16s-.04.16-.13.16h-4.08c-.09,0-.13-.07-.13-.16s.04-.16.13-.16h1.53v-.82c0-.11.09-.16.19-.16s.19.05.19.16Zm1.67-.84v.32c0,.31-.03.6-.1.84-.03.09-.12.14-.23.11-.1-.02-.16-.09-.13-.19.06-.25.09-.49.09-.78v-.23c0-.07-.03-.09-.1-.09h-2.54c-.09,0-.13-.07-.13-.17,0-.09.04-.16.13-.16h2.65c.27,0,.36.08.36.35Zm.01,3.38c0,.58-.56.89-1.55.89s-1.55-.31-1.55-.89.56-.89,1.55-.89,1.55.31,1.55.89Zm-2.72,0c0,.35.38.58,1.17.58s1.17-.23,1.17-.58-.37-.58-1.17-.58-1.17.23-1.17.58Z"/><path class="cls-5" d="m272.8,23.55c0,.09-.04.17-.13.17h-4.08c-.09,0-.13-.07-.13-.17s.04-.16.13-.16h4.08c.09,0,.13.07.13.16Zm-.55-2.11c0,.09-.04.16-.12.16h-1.3v.12c0,.25.12.42.5.58.37.15.68.27.97.38.1.03.12.13.09.21-.03.08-.1.14-.21.1-.29-.1-.6-.22-.94-.37-.43-.17-.56-.32-.6-.45h0c-.04.13-.18.29-.6.46-.35.15-.66.27-.94.37-.1.04-.18-.02-.21-.1-.03-.08,0-.19.09-.22.3-.11.6-.23.97-.38.39-.17.5-.33.5-.58v-.12h-1.3c-.08,0-.12-.07-.12-.16s.04-.16.12-.16h2.99c.08,0,.12.07.12.16Zm-.07,3.62c0,.58-.56.86-1.55.86s-1.55-.28-1.55-.86.56-.86,1.55-.86,1.55.28,1.55.86Zm-2.72,0c0,.36.38.56,1.17.56s1.17-.2,1.17-.56-.37-.56-1.17-.56-1.17.2-1.17.56Z"/><path class="cls-5" d="m275.75,22.5c0,.66-.38,1.18-1.18,1.18s-1.18-.52-1.18-1.18.38-1.18,1.18-1.18,1.18.52,1.18,1.18Zm-1.98,0c0,.45.23.85.81.85s.81-.4.81-.85-.23-.85-.81-.85-.81.4-.81.85Zm.72,1.82v1.02c0,.07.03.09.1.09h2.47c.09,0,.13.08.13.17s-.04.17-.13.17h-2.59c-.27,0-.36-.08-.36-.35v-1.1c0-.11.09-.16.19-.16s.19.05.19.16Zm2.57-3.08v3.17c0,.11-.09.16-.19.16-.1,0-.19-.05-.19-.16v-3.17c0-.11.09-.16.19-.16s.19.05.19.16Z"/><path class="cls-5" d="m280.2,21.8v.58c0,.87-.26,1.13-1.87,2.12-.08.05-.18.02-.23-.06s-.05-.19.03-.25c1.51-.92,1.69-1.11,1.69-1.83v-.48c0-.07-.03-.09-.1-.09h-1.47c-.09,0-.13-.08-.13-.17s.04-.17.13-.17h1.59c.27,0,.36.08.36.35Zm1.36-.56v1.45h.66c.09,0,.13.08.13.17,0,.09-.04.17-.13.17h-.66v2.35c0,.11-.09.16-.19.16s-.19-.05-.19-.16v-4.14c0-.11.09-.16.19-.16.1,0,.19.05.19.16Z"/><path class="cls-5" d="m269.42,28.85v3.56c0,.17-.15.25-.29.25-.16,0-.29-.07-.29-.25v-1.51h-1.75v.89c0,.42-.14.55-.57.55h-2.22c-.43,0-.56-.13-.56-.55v-2.61c0-.16.15-.24.29-.24s.29.07.29.24v1.01h2.17v-1.01c0-.16.15-.24.29-.24.16,0,.29.07.29.24v1.21h1.75v-1.54c0-.17.14-.25.29-.25s.29.07.29.25Zm-4.95,2.98h1.86c.11,0,.16-.03.16-.15v-.99h-2.17v.99c0,.11.04.15.16.15Zm.86,1.48v.79h3.5v-.79c0-.16.15-.24.29-.24s.29.07.29.24v2.17c0,.42-.14.55-.57.55h-3.55c-.43,0-.57-.13-.57-.55v-2.17c0-.16.15-.24.29-.24s.29.07.29.24Zm.16,2.22h3.19c.12,0,.16-.04.16-.16v-.77h-3.5v.77c0,.11.04.16.16.16Z"/><path class="cls-5" d="m277.59,33.23c0,.14-.07.25-.21.25h-2.9v2.47c0,.17-.15.25-.3.25s-.29-.07-.29-.25v-2.47h-2.91c-.15,0-.21-.11-.21-.25,0-.15.07-.26.21-.26h6.41c.15,0,.21.12.21.26Zm-.98-3.72v1.89c0,.42-.14.55-.57.55h-3.74c-.43,0-.57-.13-.57-.55v-1.89c0-.42.14-.55.57-.55h3.74c.43,0,.57.13.57.55Zm-4.27.11v1.66c0,.11.04.15.16.15h3.36c.11,0,.16-.04.16-.15v-1.66c0-.11-.04-.15-.16-.15h-3.36c-.12,0-.16.04-.16.15Z"/><path class="cls-5" d="m284.35,28.85v3.56c0,.17-.15.25-.29.25-.16,0-.29-.07-.29-.25v-1.51h-1.75v.89c0,.42-.14.55-.57.55h-2.22c-.43,0-.56-.13-.56-.55v-2.61c0-.16.15-.24.29-.24s.29.07.29.24v1.01h2.17v-1.01c0-.16.15-.24.29-.24.16,0,.29.07.29.24v1.21h1.75v-1.54c0-.17.14-.25.29-.25s.29.07.29.25Zm-4.95,2.98h1.86c.11,0,.16-.03.16-.15v-.99h-2.17v.99c0,.11.04.15.16.15Zm.86,1.48v.79h3.5v-.79c0-.16.15-.24.29-.24s.29.07.29.24v2.17c0,.42-.14.55-.57.55h-3.55c-.43,0-.57-.13-.57-.55v-2.17c0-.16.15-.24.29-.24s.29.07.29.24Zm.16,2.22h3.19c.12,0,.16-.04.16-.16v-.77h-3.5v.77c0,.11.04.16.16.16Z"/><path class="cls-5" d="m289.71,30.84c0,1.03-.6,1.85-1.85,1.85s-1.85-.82-1.85-1.85.6-1.86,1.85-1.86,1.85.82,1.85,1.86Zm-3.12,0c0,.71.36,1.34,1.27,1.34s1.27-.62,1.27-1.34-.36-1.34-1.27-1.34-1.27.62-1.27,1.34Zm1.13,2.86v1.61c0,.11.04.15.16.15h3.88c.15,0,.21.12.21.26s-.07.26-.21.26h-4.08c-.43,0-.57-.13-.57-.55v-1.73c0-.17.15-.25.3-.25s.3.07.3.25Zm4.04-4.85v5c0,.17-.15.25-.29.25-.16,0-.3-.07-.3-.25v-5c0-.17.15-.25.3-.25.15,0,.29.07.29.25Z"/><rect class="cls-4" x="192.44" y="2.13" width="13.95" height="37.68"/><rect class="cls-9" x="209.95" y="2.13" width="13.95" height="37.68"/><rect class="cls-10" x="227.47" y="2.13" width="13.95" height="37.68"/><rect class="cls-11" x="244.98" y="2.13" width="13.95" height="37.68"/><path class="cls-3" d="m204.02,39.8l-9.06-10.83v10.83h-.4v-11.35h.43l9.06,10.83v-10.83h.4v11.35h-.43Z"/><path class="cls-3" d="m222.26,39.8l-1.83-3.74c-1.17-2.41-2.33-4.81-3.5-7.22-1.78,3.65-3.55,7.3-5.33,10.96h-.43l5.55-11.35h.43l5.55,11.35h-.45Zm-5.33-10.96h0c1.11,2.29,2.22,4.58,3.32,6.87l-3.32-6.87Z"/><path class="cls-3" d="m239.03,39.82c-2.38-1.75-4.77-3.5-7.15-5.25v-.32c1.36,0,2.73-.01,4.09-.02.07,0,1.56,0,2.33-1.25.55-.89.47-2.01,0-2.75-.04-.06-.15-.23-.38-.44-.91-.84-2.16-.97-2.88-.98-1.05,0-2.11.01-3.16.02v-.36c1.07,0,2.15,0,3.22,0,.45-.02,1.9-.03,2.94.79.14.11.4.32.62.68.27.44.41.96.41,1.57,0,.26,0,1.07-.53,1.81-.87,1.25-2.46,1.27-2.63,1.27-1.14,0-2.28,0-3.41,0,2.32,1.74,4.65,3.48,6.97,5.22h-.45Z"/><path class="cls-3" d="m257.56,39.79l-1.83-3.74c-1.17-2.41-2.33-4.81-3.5-7.22-1.78,3.65-3.55,7.3-5.33,10.96h-.43l5.55-11.35h.43l5.55,11.35h-.45Zm-5.33-10.96h0c1.11,2.29,2.22,4.58,3.32,6.87l-3.32-6.87Z"/><path class="cls-9" d="m263.73,2.73v-.44h2.79v.44l-1.27.14h-.26l-1.26-.14Zm1.38,5.22v.58h-1.38v-.44l1.26-.14h.12Zm-.62-5.66h1.24c-.03.96-.03,1.94-.03,2.92v.58c0,.81,0,1.79.03,2.75h-1.24c.03-.96.03-1.94.03-2.82v-.51c0-.98,0-1.96-.03-2.92Zm3.97,4.44l-.09,1.81h-3.26v-.5h2.94l-.6.5.36-1.81h.64Z"/><path class="cls-9" d="m269.23,8.09l.93-.14h.17l.93.14v.44h-2.03v-.44Zm2.66-5.83h.75l2.08,6.28h-1.21l-1.69-5.34.28-.24-1.8,5.58h-.49l2.09-6.28Zm-1.02,3.86h2.46l.18.49h-2.79l.15-.49Zm1.66,1.99l1.09-.14h.4l1.15.14v.43h-2.64v-.43Z"/><path class="cls-9" d="m276.17,2.87l-1.24-.14v-.44h2.65v.44l-1.17.14h-.25Zm3.1-.58h.62l1.5,5.09-.38.51,1.52-5.6h.52l-1.73,6.29h-.63l-1.59-5.08.34-.16-1.57,5.24h-.63l-1.79-6.29h1.24l1.29,5.09-.41.51,1.7-5.6Zm.18.58l-1.14-.14v-.44h2.6v.44l-1.12.14h-.34Zm3.08,0l-.9-.14v-.44h2v.44l-.89.14h-.21Z"/><path class="cls-9" d="m286.62,2.73v-.44h1.38v.58h-.12l-1.26-.14Zm1.56,5.22l1.26.14v.44h-2.82v-.44l1.26-.14h.3Zm-.78-2.74c0-.97,0-1.95-.03-2.92h1.24c-.03.95-.03,1.93-.03,2.92v.33c0,1.04,0,2.02.03,2.99h-1.24c.03-.95.03-1.93.03-2.92v-.41Zm3-2.92l.54.5h-2.94v-.5h3.25l.06,1.65h-.64l-.28-1.65Zm-.32,3.29h-2.08v-.5h2.08v.5Zm-.29-.37l.14-.95h.47v2.22h-.47l-.14-1v-.28Z"/><path class="cls-9" d="m292.24,2.73v-.44h2.75v.44l-1.27.14h-.23l-1.26-.14Zm1.48,5.22l1.27.14v.44h-2.75v-.44l1.26-.14h.23Zm-.7-2.74c0-.97,0-1.95-.03-2.92h1.24c-.03.95-.03,1.93-.03,2.92v.41c0,.97,0,1.95.03,2.92h-1.24c.03-.95.03-1.93.03-2.92v-.41Z"/><path class="cls-9" d="m296.11,2.73v-.44h1.38v.58h-.12l-1.26-.14Zm1.49,5.22l1.26.14v.44h-2.75v-.44l1.26-.14h.24Zm-.71-2.74c0-.97,0-1.95-.03-2.92h1.22c-.03.97-.03,1.91-.03,2.98v.29c0,1.03,0,2.01.03,2.98h-1.22c.03-.95.03-1.93.03-2.92v-.41Zm.6-.03h1.11c.95,0,1.32-.55,1.32-1.23,0-.77-.4-1.17-1.25-1.17h-1.18v-.49h1.38c1.42,0,2.22.6,2.22,1.61,0,.76-.56,1.49-1.97,1.59l.02-.09c1.06.06,1.44.46,1.64,1.39l.34,1.51-.52-.33,1.16.13v.44c-.3.08-.48.12-.83.12-.67,0-1.03-.19-1.12-.78l-.27-1.31c-.14-.7-.42-.91-1.07-.91h-.96v-.48Z"/><path class="cls-9" d="m302.55,8.09l1.01-.14h.22l.9.14v.44h-2.13v-.44Zm.04-5.8h1.25v.58s-.12,0-.12,0l-1.13-.14v-.44Zm.81,0h.45l.08,3.04v3.21h-.53V2.29Zm.03,0h1.19l1.93,5.11h-.31l1.83-5.11h.54l-2.24,6.25h-.58l-2.37-6.25Zm4.01,5.8l1.13-.14h.3l1.26.14v.44h-2.69v-.44Zm.74-2.38l.02-3.43h1.18c-.03.96-.03,1.94-.03,2.92v.41c0,.98,0,1.96.03,2.92h-1.23c.03-.96.02-1.94.03-2.82Zm.58-3.43h1.36v.44l-1.24.14h-.12v-.58Z"/><path class="cls-9" d="m313.71,2.73v-.44h1.38v.58h-.12l-1.26-.14Zm1.56,5.22l1.26.14v.44h-2.82v-.44l1.26-.14h.3Zm-.78-2.74c0-.97,0-1.95-.03-2.92h1.24c-.03.95-.03,1.93-.03,2.92v.57c0,.86,0,1.78.03,2.75h-1.24c.03-.95.03-1.93.03-2.92v-.41Zm1.56.9h-.96v-.48h1.04c.96,0,1.38-.59,1.38-1.47s-.47-1.37-1.42-1.37h-1v-.49h1.09c1.71,0,2.48.75,2.48,1.87s-.69,1.95-2.61,1.95Z"/><path class="cls-9" d="m318.87,7.92c0-.42.32-.76.73-.76s.73.35.73.76-.32.75-.73.75-.73-.34-.73-.75Z"/><path class="cls-9" d="m326.05,7.62v.5l-.59.13.27-1.43h.63l-.04,1.41c-.53.3-1.17.47-1.88.47-1.8,0-3.13-1.22-3.13-3.28s1.41-3.28,3.16-3.28c.59,0,1.19.12,1.77.46l.04,1.41h-.63l-.27-1.44.59.14v.55c-.48-.45-.91-.61-1.34-.61-1.1,0-2.03.9-2.03,2.78s.86,2.77,1.97,2.77c.49,0,1-.18,1.47-.57Z"/><path class="cls-9" d="m327.71,7.92c0-.42.32-.76.73-.76s.73.35.73.76-.32.75-.73.75-.73-.34-.73-.75Z"/><path class="cls-5" d="m331.95,14.1c-.43-.01-.83,0-1.13.31-.02.02-.06.04-.09.04-.15.04-.22.16-.32.26-.15.14-.08.26-.04.4,0,.02.01.04.01.06,0,.19.08.34.19.49.08.1.19.18.22.31.04.17.09.34.12.51.11.59.11,1.18.09,1.78-.02.56,0,1.11-.03,1.67-.02.33-.05.66-.07,1-.01.27-.17.44-.39.57-.17.11-.3.27-.48.37-.01,0-.02.03-.03.05-.03.07-.09.1-.14.14-.15.11-.33.17-.46.29-.22.18-.45.35-.63.57-.08.09-.18.16-.29.2-.31.11-.51.37-.78.53-.18.1-.37.19-.51.36-.01.01-.04.02-.05.02-.31-.03-.47.25-.73.34-.13.04-.28.1-.37.21-.15.17-.33.25-.54.27-.15.02-.25-.05-.24-.2.02-.15,0-.3-.01-.44-.02-.22-.1-.42-.23-.6-.19-.26-.39-.5-.73-.56-.02,0-.04-.02-.05-.03-.26-.22-.38-.43-.14-.68.31-.33.72-.5,1.09-.72.22-.13.47-.21.62-.44.03-.04.08-.04.12-.04.38-.06.76-.16,1.1-.3.27-.11.53-.15.8-.2.23-.04.43-.13.62-.24.15-.08.28-.19.41-.29.27-.19.48-.43.49-.78,0-.14.02-.29,0-.43-.04-.34-.15-.64-.42-.87-.19-.17-.39-.32-.55-.53-.1-.14-.23-.25-.41-.28-.08-.01-.13-.07-.17-.14-.08-.14-.19-.23-.36-.25-.17-.03-.35-.07-.45-.25-.05-.1-.15-.17-.27-.21-.22-.07-.44-.13-.61-.3-.02-.02-.05-.02-.07-.02-.33-.06-.66-.14-1-.19-.16-.02-.3-.05-.45-.11-.33-.13-.67-.2-1.02-.22-.3-.02-.6.03-.89.15-.14.06-.28.13-.43.17-.44.1-.84.3-1.21.55-.15.1-.3.2-.45.29-.04.03-.08.05-.14.06-.29.01-.57.05-.86.05-.18,0-.42.22-.42.39,0,.18-.03.36-.03.54,0,.23-.06.43-.16.63-.03.06-.05.12-.03.2.04.23.14.44.19.67.05.22.16.4.36.53.22.14.41.34.69.39.31.05.62.05.92.03.23-.01.46-.06.63-.23.04-.03.08-.05.13-.06.22-.04.38-.2.53-.34.17-.17.34-.35.49-.54.2-.25.48-.43.62-.72.03-.05.08-.08.14-.11.2-.12.39-.24.55-.41.07-.08.14-.12.23-.15.22-.06.45-.02.67-.05.09-.01.23-.01.31.08.12.15.26.27.4.4.15.14.08.46-.1.54-.08.03-.13.09-.18.15-.08.11-.18.21-.3.29-.14.09-.27.18-.37.32-.06.09-.14.17-.24.19-.14.03-.22.12-.32.21-.06.06-.13.12-.2.17-.17.13-.34.25-.46.44-.03.04-.08.08-.12.1-.39.18-.7.47-1.02.74-.07.06-.15.11-.24.13-.25.07-.52.06-.76.21-.22.14-.44.28-.68.39-.15.07-.2.25-.3.39-.18.25-.34.52-.4.83-.05.27-.15.52-.29.76-.08.14-.08.32-.04.49.04.15.14.21.27.25.03,0,.05.04.07.05.41.3.86.52,1.39.5.2,0,.4,0,.6.03.23.04.32.16.26.38-.02.08-.07.15-.1.23-.09.2-.25.35-.34.54-.06.13-.15.23-.25.32-.22.19-.4.41-.41.72-.01.48-.15.94-.23,1.41-.07.43-.15.87.02,1.29.08.18.18.35.39.4.23.06.45.13.7.14.51,0,.99-.05,1.36-.46.03-.04.07-.07.12-.09.24-.11.5-.19.7-.37.02-.02.06-.02.09-.02.26-.02.45-.18.62-.36.1-.1.22-.15.35-.18.31-.08.62-.14.85-.39.05-.05.12-.07.19-.08.09-.02.16-.07.23-.13.13-.1.26-.22.41-.28.22-.08.44-.15.63-.29.19-.13.39-.23.57-.37.14-.11.26-.21.44-.24.16-.02.29-.1.39-.22.06-.08.13-.16.22-.2.19-.06.37-.14.49-.31.07-.09.17-.04.25-.01.08.03.14.08.14.17,0,.1,0,.2-.02.3-.17.67-.21,1.35-.22,2.04,0,.36.01.73.02,1.09.01.65.02,1.29-.01,1.94-.03.56-.01,1.12,0,1.68,0,.44.02.88.2,1.3.04.09.1.17.12.27.06.3.23.51.53.6.08.02.16.06.24.09.26.09.54.19.77-.06.03-.03.06-.03.1-.03.25-.01.45-.17.61-.31.15-.13.3-.19.48-.23.23-.05.46-.09.57-.34.02-.05.08-.08.13-.09.08,0,.13-.06.19-.11.2-.18.35-.41.52-.61.17-.2.3-.43.37-.68.03-.11.06-.22.1-.33.08-.18.09-.36.11-.55.04-.46-.1-.9-.13-1.35-.03-.43-.1-.87-.11-1.3,0-.33-.04-.65-.06-.98-.03-.55-.14-1.09-.12-1.65.01-.36-.05-.72-.08-1.08-.03-.35.02-.7.06-1.06.04-.42.06-.85.17-1.27.03-.13.05-.27-.02-.39-.06-.1-.1-.19-.12-.3-.04-.18-.08-.36-.21-.5-.05-.05-.06-.14-.08-.21-.12-.32-.14-.67-.26-.99-.04-.11-.12-.21-.16-.32-.11-.32-.11-.65-.07-.99.01-.09.04-.2.13-.24.16-.08.3-.18.45-.27.26-.16.46-.37.61-.62.14-.23.25-.5.29-.78.02-.14.06-.28.1-.42.04-.15.03-.29,0-.44-.03-.19-.18-.32-.24-.49-.11-.31-.3-.57-.55-.78-.18-.15-.33-.35-.52-.49-.14-.11-.25-.24-.37-.38-.07-.07-.08-.19-.18-.23-.16-.07-.24-.22-.28-.36-.05-.17-.15-.27-.31-.33-.09-.04-.17-.09-.2-.17-.04-.11-.12-.15-.22-.18-.22-.06-.44-.08-.63-.06Z"/><path class="cls-5" d="m310.86,30.65c-.02-.71.02-1.63-.02-2.55-.02-.56.02-1.12-.12-1.68-.06-.22-.09-.44-.15-.66-.07-.24-.15-.48-.15-.74,0-.12-.04-.25-.08-.36-.24-.65-.4-1.31-.43-2-.01-.3-.08-.6-.25-.86-.03-.04-.04-.09-.04-.14-.04-.35-.05-.71-.18-1.05-.08-.21-.08-.42-.05-.63.03-.23.23-.39.34-.59,0-.01.02-.02.04-.02.14-.03.25-.11.37-.18.12-.07.19-.21.32-.26.25-.1.35-.31.4-.55.04-.18.06-.38.18-.52.18-.22.16-.46.05-.67-.12-.25-.18-.5-.21-.77-.03-.26-.09-.53-.23-.75-.18-.27-.26-.61-.54-.81,0,0,0-.02-.01-.03-.28-.45-.62-.81-1.2-.82,0,0,0,0-.01,0-.23-.05-.45-.03-.66.06-.24.11-.48.21-.6.48-.1.21-.19.43-.37.6-.2.2-.3.45-.23.74,0,.03.02.07.02.1,0,.25.09.46.29.63.11.09.16.22.2.36.04.13.04.26.11.38.24.41.25.86.1,1.29-.11.33-.18.66-.22,1-.01.12-.06.24-.18.31-.07.04-.1.1-.14.17-.12.18-.12.41-.27.56-.19.19-.25.44-.37.65-.09.15-.17.3-.31.41-.07.06-.13.11-.15.2-.06.19-.17.35-.3.49-.07.08-.15.15-.21.23-.29.4-.66.71-1.11.91-.06.03-.14.01-.17.08-.06.11-.17.15-.26.21-.33.2-.66.4-.98.61-.11.07-.2.18-.31.26-.25.19-.4.18-.59-.04-.04-.04-.05-.09-.07-.13-.04-.1-.06-.21-.11-.31-.09-.15-.16-.3-.15-.48,0-.09,0-.19-.02-.28-.04-.24-.21-.43-.28-.65-.04-.14-.14-.25-.24-.35-.25-.27-.6-.4-.84-.68,0-.01-.03-.01-.04-.02-.13-.03-.21-.12-.3-.21-.13-.13-.26-.25-.44-.29-.18-.03-.31-.13-.4-.29-.05-.09-.13-.15-.22-.2-.22-.13-.44-.06-.67-.03-.14.01-.26.09-.33.21-.13.24-.24.49-.36.73-.11.23-.01.49-.09.72-.01.04.01.1.04.12.14.13.21.29.28.46.06.16.22.25.38.31.17.07.35.1.45.27.03.06.11.07.17.07.29.02.52.15.73.33.07.06.14.11.21.17.14.11.31.19.39.39.11.28.13.56.1.85-.03.35-.05.72-.33.99-.04.04-.05.08-.07.13-.05.13-.11.24-.21.34-.12.13-.24.27-.28.45-.03.12-.1.22-.23.27-.11.04-.21.13-.24.24-.05.24-.21.43-.31.64-.14.3-.16.61.03.91.1.15.22.28.3.44.04.08.12.14.22.17.08.02.16.04.22.09.09.07.19.07.29.05.2-.04.4-.09.6-.13.31-.06.48-.33.73-.47.08-.04.15-.1.2-.17.22-.28.47-.52.79-.68.08-.04.15-.1.23-.14.18-.09.34-.24.55-.29.27-.06.56-.08.76-.3.02-.03.07-.03.11-.04.23-.07.43-.19.59-.37.11-.12.26-.17.41-.2.19-.04.37-.1.49-.25.08-.1.19-.15.32-.18.09-.02.18-.05.25-.12.17-.17.34-.32.58-.39.13-.03.2,0,.23.12.02.07.04.15.03.22-.03.24,0,.47-.02.71-.03.46-.02.92-.03,1.37,0,.07.01.14,0,.21,0,.32-.06.65-.06.97,0,1.59-.05,3.18.03,4.77,0,.14-.03.31.05.42.12.17.26.32.51.31.22,0,.44.04.65.17.37.25.61.21.93-.07.07-.06.15-.08.23-.1.09-.02.17-.05.26-.06.37-.06.68-.27,1-.44.08-.04.16-.09.21-.17.19-.26.36-.53.43-.84.05-.23.05-.48.05-.71.01-.8,0-1.61,0-2.61Z"/><path class="cls-5" d="m313.12,23.01c-.41.04-.82.08-1.15.44-.16.18-.37.31-.52.51-.16.21-.37.37-.45.64-.06.22.02.48.24.56.08.03.17.03.23.09.11.12.25.15.38.23.16.1.33.19.42.37.11.24.23.47.42.66.08.08.12.18.16.28.1.31.29.53.63.59.05.01.11.03.15.07.08.07.17.08.27.1.27.04.51-.06.77-.12.46-.12.79-.41,1.09-.77.21-.25.3-.54.39-.83.06-.21.04-.45-.08-.63-.18-.29-.33-.59-.61-.82-.28-.23-.58-.46-.82-.74-.02-.02-.05-.04-.07-.05-.16-.07-.3-.15-.4-.3-.04-.06-.1-.1-.17-.13-.28-.11-.56-.15-.87-.17Z"/><path class="cls-5" d="m337.75,26.86c.31.04.56-.05.78-.25.08-.07.16-.16.27-.18.22-.04.39-.16.53-.33.06-.07.13-.14.2-.2.06-.06.09-.12.11-.2.03-.19.08-.36.19-.53.16-.23.15-.49,0-.73-.05-.08-.12-.16-.13-.26-.02-.15-.1-.26-.21-.37-.27-.27-.54-.55-.75-.86-.15-.22-.37-.37-.63-.45-.06-.02-.12-.03-.16-.07-.21-.19-.46-.2-.73-.22-.58-.04-.93.33-1.3.65-.16.14-.3.33-.45.49-.15.16-.24.37-.34.56,0,.01,0,.05,0,.06.09.08.12.19.18.28.17.22.39.34.67.36.14,0,.29.06.34.2.08.23.17.45.27.66.09.19.22.35.24.57,0,.02.03.04.05.05.16.12.27.29.34.46.11.25.27.35.52.29Z"/></g></svg>